<svg width="56" height="70" viewBox="0 0 56 70" fill="none" xmlns="http://www.w3.org/2000/svg">
<mask id="mask0_212_33" style="mask-type:luminance" maskUnits="userSpaceOnUse" x="0" y="0" width="56" height="70">
<path d="M56 0H0V70H56V0Z" fill="white"/>
</mask>
<g mask="url(#mask0_212_33)">
<path d="M53.0804 5.4682H50.6665C50.6665 4.72193 50.6301 4.06335 50.6665 3.41596C50.7908 2.67617 50.6411 1.91544 50.2466 1.28307C49.8522 0.65071 49.2415 0.192381 48.5345 -0.00195312H14.2742C13.9231 0.304017 13.5466 0.589465 13.2246 0.930883C9.07472 5.17466 4.92543 9.42155 0.776738 13.6716C0.519495 13.9168 0.31692 14.2161 0.182863 14.5491C0.0488063 14.882 -0.0135709 15.2407 -3.75323e-06 15.6007C0.0181869 30.8407 0.0224314 46.0814 0.0127297 61.3227C-0.0522204 61.7613 -0.0153211 62.2094 0.120427 62.6306C0.256175 63.0519 0.486939 63.4343 0.793953 63.7468C1.10097 64.0593 1.47556 64.2931 1.88728 64.4292C2.29899 64.5652 2.7362 64.5997 3.16335 64.5298H5.34624C5.34624 65.4383 5.34624 66.2331 5.34624 67.0316C5.31453 67.431 5.36822 67.8326 5.50356 68.2084C5.6389 68.5842 5.85263 68.9252 6.12981 69.2076C6.40698 69.4899 6.74093 69.7067 7.1083 69.8429C7.47568 69.9792 7.86762 70.0315 8.25674 69.9962C23.2046 69.9962 38.1531 69.9962 53.1022 69.9962C53.4917 70.0294 53.8836 69.9747 54.2503 69.8362C54.6171 69.6976 54.9498 69.4784 55.2252 69.194C55.5006 68.9096 55.7121 68.5668 55.8446 68.1897C55.9772 67.8126 56.0278 67.4103 55.9927 67.0111C55.9927 47.4837 55.9927 27.9614 55.9927 8.44394C56.0253 8.04424 55.9723 7.64206 55.8373 7.26561C55.7023 6.88916 55.4887 6.54755 55.2114 6.26474C54.934 5.98192 54.5998 5.76474 54.232 5.62843C53.8642 5.49212 53.4717 5.43998 53.0822 5.47566M13.3192 4.9626V13.6286H4.87146L13.3192 4.9626ZM2.71586 61.7966V16.4048H13.0573C13.4523 16.4458 13.8512 16.3968 14.2255 16.261C14.5998 16.1253 14.9402 15.9063 15.2223 15.6197C15.5043 15.3331 15.721 14.9861 15.8568 14.6034C15.9926 14.2208 16.0442 13.8121 16.0078 13.4066C16.0078 10.1243 16.0078 6.8432 16.0078 3.56335V2.7779H47.9652V61.7966H2.71586ZM53.2859 67.2182H8.04391V64.5316H47.6723C48.0787 64.5786 48.4902 64.5306 48.8759 64.3912C49.2616 64.2519 49.6116 64.0249 49.8996 63.7271C50.1877 63.4294 50.4063 63.0687 50.5391 62.672C50.6719 62.2753 50.7154 61.8529 50.6665 61.4365C50.6665 44.0086 50.6665 26.5801 50.6665 9.15103V8.24058H53.2805L53.2859 67.2182Z" fill="#155979"/>
<path d="M25.3105 48.6658C21.2916 48.6658 17.2727 48.6658 13.2537 48.6658C12.616 48.7212 11.9761 48.5909 11.4073 48.29C10.8386 47.989 10.3642 47.5297 10.0385 46.9646C9.71293 46.3996 9.54933 45.7518 9.56654 45.0956C9.58375 44.4395 9.78108 43.8017 10.1359 43.2554C14.1608 35.7143 18.1907 28.1758 22.2254 20.6397C22.5006 20.0323 22.9394 19.5182 23.49 19.1579C24.0406 18.7976 24.6801 18.6062 25.3333 18.6062C25.9864 18.6062 26.6259 18.7976 27.1765 19.1579C27.7271 19.5182 28.1659 20.0323 28.4411 20.6397C32.4783 28.2007 36.519 35.7591 40.5634 43.3151C40.9075 43.8611 41.0956 44.4951 41.1063 45.1451C41.117 45.7952 40.95 46.4353 40.6241 46.9929C40.2981 47.5505 39.8264 48.0034 39.2624 48.3C38.6983 48.5967 38.0645 48.7254 37.4328 48.6714C33.392 48.6714 29.3513 48.6714 25.3105 48.6714M25.3105 45.9364H37.3073C38.3987 45.9364 38.6752 45.4662 38.1531 44.4905C34.1633 37.0278 30.168 29.5651 26.1673 22.1024C25.9963 21.7852 25.6216 21.3879 25.3323 21.3879C25.0431 21.3879 24.6757 21.789 24.5028 22.108C20.5009 29.5396 16.5147 36.9787 12.5443 44.4252C11.9858 45.4699 12.2605 45.9177 13.4538 45.927H25.3105" fill="#155979"/>
<path d="M23.9317 31.8545C23.9317 30.7612 23.9317 29.6679 23.9317 28.5746C23.9251 28.3019 23.9507 28.0294 24.0081 27.7631C24.0912 27.4645 24.2733 27.2051 24.5231 27.0297C24.7729 26.8542 25.0746 26.7738 25.376 26.8022C25.7032 26.8196 26.0109 26.9667 26.2343 27.2125C26.4576 27.4583 26.5791 27.7835 26.573 28.1194C26.5984 30.648 26.5984 33.1766 26.573 35.7052C26.5757 35.8831 26.5433 36.0597 26.4777 36.2244C26.4122 36.3891 26.3147 36.5384 26.1913 36.6634C26.0679 36.7884 25.9211 36.8865 25.7597 36.9517C25.5983 37.0169 25.4257 37.048 25.2523 37.0429C25.0791 37.0429 24.9076 37.0076 24.7478 36.939C24.5881 36.8704 24.4432 36.7699 24.3216 36.6433C24.2001 36.5168 24.1043 36.3667 24.0398 36.2018C23.9754 36.0369 23.9436 35.8605 23.9462 35.6828C23.9098 34.4086 23.9371 33.1325 23.9371 31.8563H23.928" fill="#155979"/>
<path d="M26.582 41.8245C26.5888 42.1816 26.4573 42.5269 26.2162 42.7847C25.9751 43.0425 25.6441 43.1916 25.2959 43.1995C25.1215 43.2009 24.9486 43.1672 24.7869 43.1001C24.6253 43.033 24.4781 42.9339 24.3537 42.8085C24.2294 42.683 24.1304 42.5337 24.0624 42.3691C23.9943 42.2044 23.9585 42.0276 23.9571 41.8487C23.9556 41.6699 23.9886 41.4925 24.054 41.3267C24.1194 41.1609 24.216 41.0099 24.3383 40.8824C24.4606 40.7549 24.6062 40.6533 24.7667 40.5835C24.9273 40.5137 25.0997 40.4771 25.2741 40.4756C25.4465 40.4756 25.6172 40.5105 25.7763 40.5784C25.9355 40.6463 26.08 40.7458 26.2015 40.8711C26.3231 40.9965 26.4193 41.1452 26.4846 41.3088C26.5499 41.4725 26.583 41.6477 26.582 41.8245Z" fill="#155979"/>
</g>
</svg>
