<svg width="64" height="70" viewBox="0 0 64 70" fill="none" xmlns="http://www.w3.org/2000/svg">
<g clip-path="url(#clip0_212_78)">
<mask id="mask0_212_78" style="mask-type:luminance" maskUnits="userSpaceOnUse" x="0" y="0" width="64" height="70">
<path d="M64 0H0V70H64V0Z" fill="white"/>
</mask>
<g mask="url(#mask0_212_78)">
<path d="M48.6983 0C49.3684 0.127401 50.0003 0.407296 50.5455 0.818124C51.0906 1.22895 51.5344 1.75975 51.8427 2.36961C52.1461 3.00334 52.3185 3.69208 52.3494 4.39435C52.3827 13.5094 52.3716 22.6226 52.3716 31.7376C52.3644 31.8415 52.3515 31.9448 52.3328 32.0473H49.4807V31.161C49.4807 22.4563 49.4807 13.7523 49.4807 5.04887C49.4807 3.34861 49.0387 2.90732 47.3333 2.90732H14.612C14.5972 3.22067 14.5731 3.48211 14.5731 3.7454C14.5731 6.66261 14.5731 9.5792 14.5731 12.4952C14.5731 14.1342 14.1089 14.5922 12.4498 14.5941H2.90953V15.4804C2.90953 31.9774 2.90953 48.4745 2.90953 64.9715C2.90953 66.631 3.36638 67.0945 5.00698 67.0945H45.1434V70.0019H3.69931C0.73994 68.8838 0.00934619 67.8195 0.00934619 64.5803C0.00934619 47.6086 0.00626352 30.635 9.81737e-05 13.6596C-0.0125644 13.2982 0.0518295 12.9383 0.18898 12.6038C0.326131 12.2694 0.532882 11.9681 0.795428 11.7201C4.32817 8.19723 7.83872 4.67433 11.3641 1.15143C11.7784 0.741663 12.25 0.380102 12.6939 0H48.6983ZM11.6119 5.28249L5.32326 11.5866H11.6119V5.28249Z" fill="#CFA806"/>
<path d="M50.4646 70C49.488 68.8745 48.4541 67.7954 47.5478 66.6161C44.509 62.8123 41.8663 58.7068 39.661 54.3639C38.7251 52.6396 38.128 50.7513 37.9021 48.8014C37.7601 47.1508 37.9565 45.4886 38.4791 43.9169C39.0017 42.3452 39.8395 40.8973 40.941 39.6623C42.4481 37.8808 44.4022 36.5349 46.6016 35.7635C48.801 34.9921 51.1659 34.8233 53.4521 35.2744C55.7384 35.7255 57.8631 36.7802 59.6068 38.3296C61.3505 39.8791 62.65 41.867 63.3711 44.0881C64.3388 46.9707 64.1539 50.1171 62.8551 52.8657C61.0292 56.8603 58.7735 60.6429 56.1281 64.1464C54.9092 65.8448 53.5978 67.4839 52.2994 69.1193C51.9892 69.4433 51.6478 69.7358 51.2803 69.9926L50.4646 70ZM50.8345 66.2694C54.4408 61.9158 57.5266 57.154 60.0289 52.0814C60.6941 50.7568 61.055 49.2996 61.085 47.8169C61.0388 46.3846 60.6925 44.9781 60.0687 43.6888C59.4448 42.3995 58.5575 41.2562 57.4641 40.3331C56.3708 39.41 55.096 38.7278 53.7224 38.3308C52.3489 37.9338 50.9075 37.8309 49.4917 38.0287C47.9908 38.2214 46.5539 38.7565 45.2914 39.5927C44.0289 40.4289 42.9744 41.544 42.2089 42.8525C41.4434 44.161 40.9873 45.6279 40.8755 47.1406C40.7638 48.6534 40.9994 50.1717 41.5643 51.5789C42.7552 54.2109 44.1659 56.7372 45.7814 59.1309C47.409 61.5135 49.1107 63.8442 50.8327 66.275" fill="#CFA806"/>
<path d="M5.88733 42.2896V39.3785H21.7939V27.7215H5.88733V24.7808H22.7187C24.2447 24.7808 24.733 25.261 24.733 26.7629C24.733 31.2734 24.733 35.7852 24.733 40.2982C24.733 41.8335 24.2816 42.2821 22.7372 42.2821H5.88733V42.2896Z" fill="#CFA806"/>
<path d="M45.0878 24.7808V27.6862H33.4853V55.3632H30.5592V54.6216C30.5592 45.3508 30.5592 36.08 30.5592 26.8092C30.5592 25.2981 31.0549 24.7919 32.5475 24.7919C36.4785 24.7919 40.4102 24.7919 44.3424 24.7919L45.0878 24.7808Z" fill="#CFA806"/>
<path d="M5.87622 20.3716V17.5069H30.5462V5.89062H33.4594V6.62116C33.4594 10.5606 33.4594 14.5001 33.4594 18.4396C33.4594 19.9396 33.0007 20.405 31.5154 20.405C23.2008 20.405 14.8869 20.405 6.57352 20.405C6.35157 20.405 6.13147 20.3846 5.87622 20.3697" fill="#CFA806"/>
<path d="M39.2486 59.8467H11.6747V62.6706H39.2486V59.8467Z" fill="#CFA806"/>
<path d="M24.7311 55.3799H21.8383V49.5876H5.87988V46.6543H22.7113C24.2612 46.6543 24.7329 47.1326 24.7329 48.6938C24.7329 50.8984 24.7329 53.1012 24.7329 55.3688" fill="#CFA806"/>
<path d="M45.0712 20.3846C43.0588 20.3846 41.1112 20.4069 39.1617 20.3716C38.8497 20.3717 38.5486 20.2563 38.3162 20.0476C38.0837 19.8389 37.9363 19.5515 37.9021 19.2406C37.8574 19.0415 37.8326 18.8384 37.8281 18.6343C37.8281 14.5168 37.8281 10.3987 37.8281 6.28005C37.8281 6.1688 37.8448 6.05941 37.8578 5.89624H40.7339V17.4884H45.0731L45.0712 20.3846Z" fill="#CFA806"/>
<path d="M8.70422 59.8207H5.89282V62.6705H8.70422V59.8207Z" fill="#CFA806"/>
<path d="M56.7403 48.1488C56.7334 49.2992 56.3865 50.4217 55.7435 51.3745C55.1005 52.3274 54.1903 53.0679 53.1277 53.5025C52.0652 53.9371 50.898 54.0462 49.7736 53.8162C48.6492 53.5861 47.618 53.0272 46.8103 52.21C46.0026 51.3928 45.4546 50.354 45.2355 49.2247C45.0164 48.0955 45.136 46.9264 45.5793 45.8653C46.0226 44.8042 46.7696 43.8986 47.726 43.2628C48.6824 42.6271 49.8054 42.2897 50.9529 42.2934C52.4903 42.3152 53.9578 42.9408 55.04 44.0357C56.1222 45.1306 56.7327 46.6074 56.7403 48.1488ZM50.8956 51.0209C51.4669 51.0245 52.0264 50.8584 52.5036 50.5435C52.9808 50.2286 53.3542 49.779 53.5766 49.2515C53.7991 48.724 53.8607 48.1423 53.7536 47.5797C53.6466 47.0172 53.3756 46.499 52.975 46.0907C52.5744 45.6824 52.0621 45.4023 51.5028 45.2856C50.9435 45.1689 50.3623 45.221 49.8325 45.4353C49.3027 45.6495 48.848 46.0163 48.526 46.4893C48.204 46.9624 48.0291 47.5205 48.0232 48.0932C48.02 48.4745 48.0918 48.8527 48.2344 49.2062C48.3771 49.5597 48.5878 49.8815 48.8545 50.1534C49.1213 50.4253 49.4388 50.6418 49.789 50.7906C50.1392 50.9395 50.5152 51.0177 50.8956 51.0209Z" fill="#CFA806"/>
</g>
</g>
<defs>
<clipPath id="clip0_212_78">
<rect width="64" height="70" fill="white"/>
</clipPath>
</defs>
</svg>
