<?xml version="1.0" encoding="UTF-8"?>
<svg id="N" xmlns="http://www.w3.org/2000/svg" viewBox="0 0 693.86 337.86">
  <defs>
    <style>
      .cls-1, .cls-2, .cls-3 {
        fill: #cfa803;
      }

      .cls-1, .cls-4 {
        stroke-width: 0px;
      }

      .cls-2 {
        stroke-width: 3px;
      }

      .cls-2, .cls-5, .cls-3 {
        stroke: #cfa803;
        stroke-miterlimit: 10;
      }

      .cls-5 {
        fill: none;
      }

      .cls-5, .cls-3 {
        stroke-width: 5px;
      }

      .cls-4 {
        fill: #1a85b8;
      }
    </style>
  </defs>
  <path class="cls-5" d="M691.35,156.94c1.49-91.49-142.25-162.33-334.98-153.73C146.91,12.55-9.64,85.24,3.24,188.8c10.94,87.92,137.57,149.03,341.5,146.49,201.46-2.51,345.11-86.3,346.61-178.35Z"/>
  <path class="cls-4" d="M383.2,140.86h1.08c.39,0,.97-.05,1.74-.17l2.49-.33-5.55,18.05c-2.54,9.03-4.53,16.38-5.96,22.03-.33,1.33-1.02,4.41-2.07,9.23-.77,3.49-1.55,6.98-2.32,10.47l-3.31-.33h-2.9c-.99.17-1.77.28-2.32.33l3.47-10.76,2.48-8.28,2.73-10.02,3.14-12.26,4.04-18.22,3.26.26Z"/>
  <path class="cls-4" d="M385.08,194.26l1.74-3.39.33-.25c.72,1.88,1.71,3.55,2.98,5.01,1.27,1.46,3.59,2.19,6.95,2.19,4.47,0,8.54-1.75,12.21-5.26,3.67-3.51,5.51-7.49,5.51-11.97,0-2.59-1.66-4.8-4.97-6.62l-7.45-3.73c-4.69-2.26-7.04-5.96-7.04-11.09s2.36-9.89,7.08-13.79c4.72-3.89,10.25-5.84,16.6-5.84,4.31,0,7.87.88,10.68,2.65l1.49,1.08-.91,1.24-1.08,1.41-.83,1.16-.83,1.41h-.75c-.28-1.05-.91-2.28-1.91-3.68-.99-1.41-3.37-2.11-7.12-2.11-4.03,0-7.6,1.46-10.72,4.39-3.12,2.93-4.68,6.29-4.68,10.1,0,1.66.37,3.01,1.12,4.06.75,1.05,2.11,2.1,4.1,3.15l6.62,3.48c5.24,2.76,7.87,6.51,7.87,11.26,0,5.47-2.58,10.45-7.74,14.95-5.16,4.5-11.03,6.75-17.59,6.75-.72,0-1.51-.01-2.36-.04-.86-.03-1.88-.19-3.06-.5-1.19-.3-2.19-.61-3.02-.91-.83-.3-1.66-.67-2.48-1.12l-2.32-1.57.83-1.16.75-1.24Z"/>
  <path class="cls-4" d="M469.1,204.86l5.38,3.64,6.95,4.14-.33.83-3.06,1.57-2.9,1.49-10.76-8.78-7.95-6.96h-1.82c-7.73,0-13.87-1.98-18.42-5.95-4.55-3.97-6.83-9.23-6.83-15.79,0-10.47,3.97-19.68,11.92-27.62,7.95-7.94,17.22-11.91,27.82-11.91,7.62,0,13.77,2.07,18.46,6.21,4.69,4.14,7.04,9.69,7.04,16.64,0,4.64-.94,9.25-2.82,13.83-.94,2.32-2.07,4.47-3.39,6.46-1.33,1.99-2.98,4-4.97,6.05-3.53,3.64-7.18,6.26-10.93,7.86-3.48,1.44-6.76,2.54-9.85,3.31l3.56,2.9,2.9,2.07ZM436.65,184.16c.66,4.36,2.62,7.78,5.88,10.27,3.26,2.49,7.45,3.73,12.59,3.73,4.64,0,9.04-1.09,13.21-3.27,4.17-2.18,7.59-5.15,10.27-8.9,2.68-3.75,4.84-7.98,6.5-12.67.77-2.43,1.35-4.68,1.74-6.75.39-2.07.58-4.13.58-6.17,0-5.41-1.74-9.73-5.22-12.96-3.48-3.23-8.14-4.84-13.99-4.84-9.27,0-16.09,2.94-20.45,8.82-4.36,5.88-7.37,11.27-9.02,16.19-.77,2.54-1.35,4.9-1.74,7.08-.39,2.18-.58,4.43-.58,6.75l.25,2.73Z"/>
  <path class="cls-4" d="M512.7,140.7c.61,0,1.33-.03,2.15-.08.83-.05,1.74-.17,2.73-.33l-3.14,9.44-2.48,8.61-1.16,4.14-2.09,7.94-2.96,11.43c-.34,1.66-.51,2.95-.51,3.89,0,3.53,1.21,6.31,3.64,8.32,2.43,2.01,5.82,3.02,10.18,3.02s8.64-1.04,12.5-3.11c3.86-2.07,6.72-4.47,8.57-7.2,1.85-2.73,3.24-5.33,4.18-7.78.94-2.46,1.96-5.53,3.06-9.23l1.96-7.38.47-2.08.63-2.06,2.68-10.84,1.62-7.13,1.4.33,3.2-.34-2.88,9.19-2.47,8.86-.4,1.66-.68,2.48-1.78,6.72-2.48,8.94c-.5,1.66-1.09,3.2-1.78,4.63-.69,1.44-1.96,3.52-3.81,6.25-1.85,2.73-5.21,5.38-10.07,7.94-4.86,2.57-9.81,3.85-14.83,3.85-5.52,0-10.19-1.56-14-4.68-3.81-3.12-5.72-6.91-5.72-11.38,0-1.66.11-2.82.33-3.48l3.27-11.93,1.89-6.88,1.13-4.12c1.33-5.13,2.73-11.14,4.22-18.05l3.39.41Z"/>
  <path class="cls-4" d="M561.66,181.93c1.31-4.59,2.35-8.29,3.11-11.11.11-.44.93-3.56,2.45-9.36l3.29-13.06,1.74-7.94,2.98.27,6.38.4h4.89l6.3-.33,9.11-.33c-.61,1.46-1.02,2.93-1.24,4.39l-14.71-.41h-7.19s-1.88,6.46-1.88,6.46l-1.75,6.29-2.61,10.03h3.81s8.03-.33,8.03-.33l8.61-.33-.83,2.15-.41,2.07-15.29-.33h-2.4s-2.4.01-2.4.01l-3.68,13.24-3.23,12.34,6.79.08,7.86-.17,7.7-.25-.91,2.4-.5,1.99-14.52-.33-8.05.33-7.13-.02,3.09-9.51,2.59-8.6Z"/>
  <path class="cls-4" d="M594.92,193.26l1.74-3.39.33-.25c.72,1.88,1.71,3.55,2.98,5.01,1.27,1.46,3.59,2.19,6.95,2.19,4.47,0,8.54-1.75,12.21-5.26,3.67-3.5,5.51-7.49,5.51-11.96,0-2.59-1.66-4.8-4.97-6.62l-7.45-3.73c-4.69-2.26-7.04-5.96-7.04-11.1s2.36-9.89,7.08-13.79c4.72-3.89,10.25-5.84,16.6-5.84,4.31,0,7.87.88,10.68,2.65l1.49,1.08-.91,1.24-1.08,1.41-.83,1.16-.83,1.41h-.75c-.28-1.05-.91-2.28-1.91-3.68-.99-1.41-3.37-2.11-7.12-2.11-4.03,0-7.6,1.46-10.72,4.39-3.12,2.93-4.68,6.29-4.68,10.1,0,1.66.37,3.01,1.12,4.06.75,1.05,2.11,2.1,4.1,3.15l6.62,3.48c5.24,2.76,7.87,6.51,7.87,11.26,0,5.46-2.58,10.45-7.74,14.94-5.16,4.5-11.03,6.75-17.59,6.75-.72,0-1.51-.01-2.36-.04-.86-.03-1.88-.19-3.06-.5-1.19-.3-2.19-.61-3.02-.91-.83-.3-1.66-.68-2.48-1.12l-2.32-1.57.83-1.16.75-1.24Z"/>
  <path class="cls-4" d="M334.39,96.64c0-14.42,4.77-26.6,14.3-36.56,9.53-9.95,21.33-14.93,35.37-14.93,9.02,0,16.33,2.51,21.91,7.53,5.58,5.02,8.37,11.63,8.37,19.81,0,13.95-4.86,25.91-14.58,35.86-9.72,9.96-21.47,14.93-35.23,14.93-6.98,0-13.14-1.67-18.49-5.02-5.35-3.35-8.86-7.95-10.53-13.81-.37-1.21-.65-2.37-.84-3.49-.19-1.12-.28-2.56-.28-4.33ZM345.55,100.26c.56,5.49,2.65,9.96,6.28,13.4,3.63,3.44,8.37,5.16,14.23,5.16s11.44-1.61,16.46-4.81c5.02-3.21,8.95-7.44,11.79-12.7,2.84-5.25,5.02-10.67,6.56-16.26,1.53-5.58,2.3-10.56,2.3-14.93,0-6.14-1.86-11.09-5.58-14.86-3.72-3.77-8.75-5.65-15.07-5.65-12,0-20.33,4-24.98,12-4.65,8-7.81,15.05-9.49,21.14-1.67,6.09-2.51,11.28-2.51,15.56v1.95Z"/>
  <path class="cls-4" d="M430.45,46.26l11.13.97,1.96-8.8,1.37-6.14c.56-.09,1.09-.21,1.61-.35.51-.14,1.09-.39,1.75-.77l3.63-1.53,3.49-1.81,2.93-1.81-4.33,13.67-2,7.56h2.78s2.93-.01,2.93-.01h9.19c1.11-.22,1.9-.32,2.37-.32l5.71-.65-1.4,4.05-.56,3.63-8.24-.42-11.45-.42h-3.07s-8.1,30.41-8.1,30.41l-4.79,17.84-1.33,7.54c0,5.87,3.02,8.8,9.07,8.8,3.44,0,7.44-1.07,12-3.21l-.14,1.26.42,3.07c-3.44,1.58-6.7,2.74-9.77,3.49-1.49.28-2.98.51-4.47.7-1.49.19-3.16.28-5.02.28-8.84,0-13.26-3.44-13.26-10.33v-1.81l.84-5.02,6.31-22.04,8.25-30.97-3.65.4h-8.27l1.12-3.56.98-3.7Z"/>
  <path class="cls-4" d="M491.21,61.89l.42-6v-1.26c5.49-3.26,10.37-5.63,14.65-7.12,4.28-1.49,8.98-2.23,14.09-2.23,5.86,0,10.44,1.14,13.74,3.42,3.3,2.28,4.95,5.56,4.95,9.84,0,2.42-.28,4.6-.83,6.56l-2.91,10.47-6.72,24.27c-1.58,6.33-2.37,10.23-2.37,11.72,0,4,1.91,6,5.74,6,.65,0,2.1-.46,4.34-1.4l-.31,2.76v1.16c-4.71,2.22-8.69,3.34-11.92,3.34-5.82,0-8.73-3.05-8.73-9.16v-2c-1.3,1.3-2.61,2.33-3.91,3.07-7.26,5.4-14.84,8.09-22.74,8.09-11.16,0-16.74-5.21-16.74-15.63,0-6.7,2.05-12,6.16-15.91,4.1-3.91,7.79-6.65,11.05-8.23,2.98-1.3,8.06-2.88,15.25-4.74l8.53-1.95c6.06-1.4,10.07-3,12.03-4.81,1.96-1.81,2.94-4.95,2.94-9.42,0-7.72-4.34-11.58-13.03-11.58-6.26,0-12.32,2.19-18.21,6.56l-4.62,4.19h-.84ZM524.61,77.67l-6.99,2.66-12.86,3.22c-6.52,1.4-11.67,4.2-15.44,8.4s-5.66,9.19-5.66,14.98c0,6.81,3.63,10.22,10.88,10.22,3.53,0,7.23-.98,11.09-2.95,3.86-1.97,6.81-4.26,8.86-6.88,2.05-2.62,3.77-6.55,5.16-11.8l4.94-17.84Z"/>
  <g>
    <path class="cls-4" d="M360.5,262.94c2.43-8.31,4.75-16.68,6.94-25.1l4.4-19.11,3.36.17,2.3-.25,4.95-.37h5.39c11.48,0,17.22,4.13,17.22,12.38,0,3.6-1.37,7.13-4.11,10.61-2.74,3.48-5.56,5.78-8.45,6.9-.83.3-1.96.68-3.4,1.15-1.44.47-2.7.8-3.76.97-1.06.18-2.08.28-3.05.31-.97.03-1.76.05-2.34.05l1.42,2.83,6.54,11.58c2.89,4.89,6.54,10.58,10.97,17.07l-3.97-.09h-2.83l-3.71.26c-1.83-4.36-3.36-7.75-4.59-10.17-.59-1.18-1.11-2.27-1.55-3.27-.44-1-1.13-2.3-2.08-3.89l-3.53-6.28c-1-1.83-2.77-4.6-5.3-8.31l-2.21,7.78-1.5,5.84-2.12,8.58-2.29,9.7-3.52-.34h-2.2l-2.9.35,3.45-11.05,2.49-8.31ZM371.72,247.99l5.13.35c5.84,0,10.65-1.54,14.46-4.63s5.7-7.09,5.7-12.02c0-3.38-.94-5.84-2.83-7.39-1.77-1.6-4.72-2.4-8.84-2.4h-3.71l-3.18.62-6.72,25.47Z"/>
    <path class="cls-4" d="M408.64,262.84c.83-2.77,2.06-7.25,3.72-13.44,1.24-4.54,2.18-8.08,2.83-10.61l4.77-20.16,2.92.1,5.67-.35h6.02c11.86,0,17.8,3.95,17.8,11.85,0,4.19-1.56,7.91-4.69,11.19-3.12,3.27-7.6,5.65-13.44,7.12,8.61,1.06,12.91,5.04,12.91,11.94,0,5.96-2.58,11.1-7.74,15.43-5.16,4.33-11.45,6.5-18.88,6.5h-1.59l-6.63-.35-2.74-.09h-3.98c-1.24.22-2.18.37-2.83.44l3.4-10.6,2.49-8.95ZM411.96,277.79l3.8,1.06h3.45c5.66,0,10.4-1.73,14.24-5.17,3.83-3.45,5.75-7.83,5.75-13.13,0-6.84-4.27-10.26-12.8-10.26h-2.56c-.65,0-2.18.12-4.59.36l-7.28,27.14ZM420.33,246.95l5.03.25c5.65,0,10.23-1.51,13.76-4.54,3.53-3.03,5.29-7.03,5.29-12.02,0-3.15-.9-5.43-2.7-6.86-1.8-1.42-4.73-2.14-8.8-2.14-1.53,0-3.57.26-6.1.8l-6.49,24.51Z"/>
    <path class="cls-4" d="M445.65,277.26l9.39-12.26,10.88-14.59,18.68-25.37,4.54-6.62,2.05.46c1.13,0,2.22-.15,3.29-.46,0,6.5.21,11.98.63,16.47l1.57,18.04c.77,7.9,1.45,13.38,2.04,16.45l1.69,8.84.8,3.89-3.8-.09-5.66.26-.53-11.27c0-1.13-.03-2.29-.09-3.49-.06-1.19-.18-2.41-.35-3.67l-.71-5.72h-24.61l-5.66,7.44-4.28,6.23-6.65,10.42-2.71-.21h-1.84l-2.63.26,3.98-5.04ZM467.56,254.18l12.09.18h9.69l-2.58-26.72-19.19,26.54Z"/>
  </g>
  <path class="cls-3" d="M308.2,218.89c.65,0,1.42-.03,2.31-.09.89-.06,1.86-.18,2.93-.36l-3.36,10.12-2.65,9.23-1.24,4.44-2.25,8.51-3.18,12.25c-.36,1.78-.55,3.17-.55,4.17,0,3.79,1.3,6.76,3.91,8.92,2.6,2.16,6.24,3.24,10.92,3.24s9.26-1.11,13.4-3.33c4.14-2.22,7.2-4.79,9.19-7.72,1.98-2.93,3.48-5.71,4.48-8.34,1.01-2.63,2.1-5.93,3.28-9.9l2.11-7.91.5-2.23.68-2.2,2.88-11.62,1.74-7.64,1.5.36,3.43-.36-3.09,9.86-2.64,9.5-.43,1.78-.73,2.66-1.91,7.2-2.66,9.59c-.53,1.78-1.17,3.43-1.91,4.97s-2.1,3.77-4.09,6.7c-1.98,2.93-5.58,5.77-10.79,8.52-5.21,2.75-10.51,4.13-15.9,4.13-5.92,0-10.93-1.67-15.01-5.02-4.09-3.34-6.13-7.41-6.13-12.21,0-1.77.12-3.02.36-3.73l3.51-12.79,2.02-7.37,1.21-4.42c1.42-5.49,2.93-11.94,4.53-19.35l3.64.44Z"/>
  <path class="cls-2" d="M315.46,178.03c2.45-8.36,4.78-16.79,6.99-25.27l4.43-19.23,3.38.17,2.31-.25,4.98-.37h5.42c11.56,0,17.33,4.15,17.33,12.46,0,3.62-1.38,7.18-4.14,10.68-2.76,3.5-5.59,5.82-8.5,6.94-.83.3-1.97.68-3.43,1.16-1.45.48-2.71.8-3.78.98-1.07.18-2.09.28-3.07.31-.98.03-1.77.04-2.36.04l1.42,2.85,6.59,11.66c2.91,4.93,6.59,10.65,11.04,17.18l-4-.09h-2.85l-3.73.27c-1.84-4.39-3.38-7.8-4.62-10.24-.59-1.19-1.11-2.28-1.56-3.29-.45-1.01-1.14-2.31-2.09-3.92l-3.56-6.32c-1.01-1.84-2.79-4.63-5.34-8.37l-2.22,7.84-1.51,5.88-2.14,8.64-2.3,9.77-3.54-.34h-2.21l-2.92.36,3.47-11.13,2.51-8.36ZM326.75,162.99l5.16.36c5.87,0,10.72-1.55,14.55-4.66,3.83-3.11,5.74-7.14,5.74-12.1,0-3.4-.95-5.88-2.85-7.44-1.78-1.61-4.75-2.42-8.9-2.42h-3.74l-3.2.62-6.77,25.63Z"/>
  <path class="cls-1" d="M154.55,46.45l8.51-1.3,12.28,26.1,18.34,35.83,23.45,44.27,19.56,35.41,14.72,25.27,16.29,26.24,13.06-46,15.62-60.95,12.85-52.54,8.11-32.32h6.07l11.81-1.24-12.27,41.11-10.29,35.82-14.47,55.46-17.1,68.15-8.49,33.94h-15.08l-23.53-44.74-20.24-38.44-40.79-72.83-18.34-30.95-5.03,17.67-4.19,15.95-18.56,71.78-19.68,81.6-5.79-.05-11.89.92,13.35-44.98,11.58-41.13,10.99-41.77,10.57-42.69c1.68-6.46,3.62-14.96,5.83-25.51,2.2-10.55,4.67-23.25,7.4-38.1h5.35Z"/>
</svg>