<?xml version="1.0" standalone="no"?>
<!DOCTYPE svg PUBLIC "-//W3C//DTD SVG 20010904//EN"
 "http://www.w3.org/TR/2001/REC-SVG-20010904/DTD/svg10.dtd">
<svg version="1.0" xmlns="http://www.w3.org/2000/svg"
 width="535.000000pt" height="535.000000pt" viewBox="0 0 535.000000 535.000000"
 preserveAspectRatio="xMidYMid meet">
<metadata>
Created by potrace 1.14, written by Peter Selinger 2001-2017
</metadata>
<g transform="translate(0.000000,535.000000) scale(0.100000,-0.100000)"
fill="#000000" stroke="none">
<path d="M1115 3974 c-11 -2 -42 -9 -70 -15 -27 -6 -57 -12 -65 -13 -19 -4
-42 -12 -105 -37 -27 -11 -54 -22 -60 -23 -5 -2 -32 -14 -60 -27 -27 -13 -53
-22 -57 -21 -5 1 -8 -2 -8 -6 0 -5 -22 -21 -50 -36 -27 -15 -50 -31 -50 -36 0
-5 -10 -12 -22 -16 -13 -4 -29 -15 -36 -25 -7 -11 -18 -19 -23 -19 -5 0 -23
-14 -39 -30 -17 -17 -30 -28 -30 -24 0 3 -15 -12 -34 -35 -18 -22 -36 -37 -40
-34 -3 4 -6 1 -6 -6 0 -12 -12 -28 -67 -86 -13 -13 -23 -28 -23 -32 0 -5 -11
-21 -25 -36 -14 -15 -23 -27 -20 -27 4 0 -1 -7 -9 -16 -9 -8 -16 -21 -16 -29
0 -7 -7 -15 -15 -19 -8 -3 -15 -11 -15 -18 0 -7 -15 -45 -34 -83 -42 -87 -68
-164 -97 -280 -18 -72 -23 -124 -26 -260 -1 -93 2 -192 8 -220 5 -27 11 -59
13 -70 17 -90 55 -203 101 -303 14 -29 25 -55 25 -58 0 -3 16 -30 35 -60 19
-30 35 -57 34 -60 0 -3 9 -14 20 -23 12 -10 21 -21 21 -25 0 -8 28 -42 67 -84
18 -19 33 -35 33 -37 0 -2 16 -19 35 -38 19 -19 35 -33 35 -31 0 1 15 -13 34
-31 18 -19 37 -35 41 -35 4 0 16 -10 26 -22 11 -11 19 -18 19 -14 0 4 7 1 15
-6 38 -35 170 -113 177 -106 2 2 17 -6 33 -18 17 -11 50 -26 75 -34 25 -7 51
-18 59 -24 10 -8 673 -12 2223 -14 l2208 -2 0 1305 0 1305 -2107 -1 c-1160 -1
-2117 -3 -2128 -5z"/>
</g>
</svg>
