<svg width="18" height="18" viewBox="0 0 18 18" fill="none" xmlns="http://www.w3.org/2000/svg">
<path fill-rule="evenodd" clip-rule="evenodd" d="M9.48686 1.80009L11.7175 6.21943L16.0109 6.64476C16.2196 6.6621 16.3991 6.79926 16.4707 6.99606C16.5423 7.19286 16.4929 7.41334 16.3442 7.56076L12.8109 11.0628L14.1209 15.8214C14.1756 16.0276 14.1043 16.2467 13.9388 16.3812C13.7732 16.5157 13.5441 16.5406 13.3535 16.4448L9.00086 14.2894L4.65419 16.4421C4.46361 16.5379 4.23454 16.5131 4.06896 16.3786C3.90339 16.244 3.83211 16.0249 3.88686 15.8188L5.19686 11.0601L1.66086 7.55809C1.51211 7.41067 1.46271 7.19019 1.53432 6.9934C1.60594 6.7966 1.78549 6.65944 1.99419 6.64209L6.28753 6.21676L8.51486 1.80009C8.60825 1.61768 8.79593 1.50293 9.00086 1.50293C9.20579 1.50293 9.39346 1.61768 9.48686 1.80009Z" stroke="#202224" stroke-width="1.2" stroke-linecap="round" stroke-linejoin="round"/>
</svg>
