<svg width="55" height="55" viewBox="0 0 55 55" fill="none" xmlns="http://www.w3.org/2000/svg">
<path d="M46.425 55C51.1609 55 55.0683 51.1381 54.3329 46.4597C53.6596 42.176 52.4805 37.9771 50.8134 33.9524C48.0494 27.2795 43.9981 21.2163 38.8909 16.1091C33.7837 11.0019 27.7205 6.95063 21.0476 4.18663C17.0229 2.51955 12.824 1.34044 8.54033 0.66711C3.86195 -0.0682658 -3.8147e-06 3.83914 -3.8147e-06 8.57497C0 13.3108 3.88704 17.0534 8.50185 18.1171C10.5409 18.5871 12.5422 19.2265 14.4846 20.0311C19.0768 21.9332 23.2493 24.7213 26.764 28.236C30.2787 31.7507 33.0668 35.9232 34.9689 40.5154C35.7735 42.4578 36.4128 44.4591 36.8829 46.4982C37.9466 51.113 41.6892 55 46.425 55Z" fill="#155979"/>
</svg>
